{
    "accessors" : [
        {
            "bufferView" : 0,
            "componentType" : 5126,
            "count" : 1984,
            "max" : [
                10.00000286102295,
                10,
                10.000003814697266
            ],
            "min" : [
                -9.99999713897705,
                -10,
                -10
            ],
            "type" : "VEC3"
        },
        {
            "bufferView" : 1,
            "componentType" : 5126,
            "count" : 1984,
            "type" : "VEC3"
        },
        {
            "bufferView" : 2,
            "componentType" : 5126,
            "count" : 1984,
            "type" : "VEC2"
        },
        {
            "bufferView" : 3,
            "componentType" : 5123,
            "count" : 2880,
            "type" : "SCALAR"
        },
        {
            "bufferView" : 5,
            "componentType" : 5126,
            "count" : 24,
            "max" : [
                2.5,
                2.5,
                2.5
            ],
            "min" : [
                -2.5,
                -2.5,
                -2.5
            ],
            "type" : "VEC3"
        },
        {
            "bufferView" : 6,
            "componentType" : 5126,
            "count" : 24,
            "type" : "VEC3"
        },
        {
            "bufferView" : 7,
            "componentType" : 5126,
            "count" : 24,
            "type" : "VEC2"
        },
        {
            "bufferView" : 8,
            "componentType" : 5121,
            "count" : 36,
            "type" : "SCALAR"
        },
        {
            "bufferView" : 10,
            "componentType" : 5126,
            "count" : 192,
            "max" : [
                4,
                1,
                4
            ],
            "min" : [
                -4,
                -1,
                -4
            ],
            "type" : "VEC3"
        },
        {
            "bufferView" : 11,
            "componentType" : 5126,
            "count" : 192,
            "type" : "VEC3"
        },
        {
            "bufferView" : 12,
            "componentType" : 5126,
            "count" : 192,
            "type" : "VEC2"
        },
        {
            "bufferView" : 13,
            "componentType" : 5121,
            "count" : 372,
            "type" : "SCALAR"
        },
        {
            "bufferView" : 15,
            "componentType" : 5126,
            "count" : 128,
            "max" : [
                2,
                1.5,
                2
            ],
            "min" : [
                -2,
                -1.5,
                -2
            ],
            "type" : "VEC3"
        },
        {
            "bufferView" : 16,
            "componentType" : 5126,
            "count" : 128,
            "type" : "VEC3"
        },
        {
            "bufferView" : 17,
            "componentType" : 5126,
            "count" : 128,
            "type" : "VEC2"
        },
        {
            "bufferView" : 18,
            "componentType" : 5121,
            "count" : 186,
            "type" : "SCALAR"
        }
    ],
    "asset" : {
        "generator" : "Khronos Blender glTF 2.0 I/O",
        "version" : "2.0"
    },
    "bufferViews" : [
        {
            "buffer" : 0,
            "byteLength" : 23808,
            "byteOffset" : 0
        },
        {
            "buffer" : 0,
            "byteLength" : 23808,
            "byteOffset" : 23808
        },
        {
            "buffer" : 0,
            "byteLength" : 15872,
            "byteOffset" : 47616
        },
        {
            "buffer" : 0,
            "byteLength" : 5760,
            "byteOffset" : 63488
        },
        {
            "buffer" : 0,
            "byteLength" : 5688,
            "byteOffset" : 69248
        },
        {
            "buffer" : 0,
            "byteLength" : 288,
            "byteOffset" : 74936
        },
        {
            "buffer" : 0,
            "byteLength" : 288,
            "byteOffset" : 75224
        },
        {
            "buffer" : 0,
            "byteLength" : 192,
            "byteOffset" : 75512
        },
        {
            "buffer" : 0,
            "byteLength" : 36,
            "byteOffset" : 75704
        },
        {
            "buffer" : 0,
            "byteLength" : 23577,
            "byteOffset" : 75740
        },
        {
            "buffer" : 0,
            "byteLength" : 2304,
            "byteOffset" : 99320
        },
        {
            "buffer" : 0,
            "byteLength" : 2304,
            "byteOffset" : 101624
        },
        {
            "buffer" : 0,
            "byteLength" : 1536,
            "byteOffset" : 103928
        },
        {
            "buffer" : 0,
            "byteLength" : 372,
            "byteOffset" : 105464
        },
        {
            "buffer" : 0,
            "byteLength" : 37105,
            "byteOffset" : 105836
        },
        {
            "buffer" : 0,
            "byteLength" : 1536,
            "byteOffset" : 142944
        },
        {
            "buffer" : 0,
            "byteLength" : 1536,
            "byteOffset" : 144480
        },
        {
            "buffer" : 0,
            "byteLength" : 1024,
            "byteOffset" : 146016
        },
        {
            "buffer" : 0,
            "byteLength" : 186,
            "byteOffset" : 147040
        },
        {
            "buffer" : 0,
            "byteLength" : 50135,
            "byteOffset" : 147228
        }
    ],
    "buffers" : [
        {
            "byteLength" : 197364,
            "uri" : "data:application/octet-stream;base64,"
        }
    ],
    "extensions" : {},
    "images" : [
        {
            "bufferView" : 4,
            "mimeType" : "image/png",
            "name" : "White"
        },
        {
            "bufferView" : 9,
            "mimeType" : "image/png",
            "name" : "Green"
        },
        {
            "bufferView" : 14,
            "mimeType" : "image/png",
            "name" : "Red"
        },
        {
            "bufferView" : 19,
            "mimeType" : "image/png",
            "name" : "Blue"
        }
    ],
    "materials" : [
        {
            "name" : "Material.003",
            "pbrMetallicRoughness" : {
                "baseColorTexture" : {
                    "index" : 0,
                    "texCoord" : 0
                },
                "metallicFactor" : 0,
                "roughnessFactor" : 0.5
            }
        },
        {
            "name" : "Material.002",
            "pbrMetallicRoughness" : {
                "baseColorTexture" : {
                    "index" : 1,
                    "texCoord" : 0
                },
                "metallicFactor" : 0,
                "roughnessFactor" : 0.5
            }
        },
        {
            "name" : "Material.001",
            "pbrMetallicRoughness" : {
                "baseColorTexture" : {
                    "index" : 2,
                    "texCoord" : 0
                },
                "metallicFactor" : 0,
                "roughnessFactor" : 0.5
            }
        },
        {
            "name" : "Material.004",
            "pbrMetallicRoughness" : {
                "baseColorTexture" : {
                    "index" : 3,
                    "texCoord" : 0
                },
                "metallicFactor" : 0,
                "roughnessFactor" : 0.5
            }
        }
    ],
    "meshes" : [
        {
            "name" : "Zhongxin",
            "primitives" : [
                {
                    "attributes" : {
                        "NORMAL" : 1,
                        "POSITION" : 0,
                        "TEXCOORD_0" : 2
                    },
                    "indices" : 3,
                    "material" : 0
                }
            ]
        },
        {
            "name" : "Y-xi",
            "primitives" : [
                {
                    "attributes" : {
                        "NORMAL" : 5,
                        "POSITION" : 4,
                        "TEXCOORD_0" : 6
                    },
                    "indices" : 7,
                    "material" : 1
                }
            ]
        },
        {
            "name" : "X-bei",
            "primitives" : [
                {
                    "attributes" : {
                        "NORMAL" : 9,
                        "POSITION" : 8,
                        "TEXCOORD_0" : 10
                    },
                    "indices" : 11,
                    "material" : 2
                }
            ]
        },
        {
            "name" : "Z-tiankong",
            "primitives" : [
                {
                    "attributes" : {
                        "NORMAL" : 13,
                        "POSITION" : 12,
                        "TEXCOORD_0" : 14
                    },
                    "indices" : 15,
                    "material" : 3
                }
            ]
        }
    ],
    "nodes" : [
        {
            "mesh" : 0,
            "name" : "Sphere"
        },
        {
            "mesh" : 1,
            "name" : "Cube",
            "translation" : [
                0,
                0,
                -10
            ]
        },
        {
            "mesh" : 2,
            "name" : "Cylinder",
            "translation" : [
                10,
                0,
                0
            ]
        },
        {
            "mesh" : 3,
            "name" : "Cone",
            "rotation" : [
                1,
                0,
                0,
                -4.371138828673793e-08
            ],
            "translation" : [
                0,
                11,
                0
            ]
        },
        {
            "name" : "Camera",
            "rotation" : [
                0.21137882769107819,
                0.7592330574989319,
                -0.529676616191864,
                0.31357109546661377
            ],
            "translation" : [
                60,
                30,
                -60
            ]
        }
    ],
    "scene" : 0,
    "scenes" : [
        {
            "name" : "Scene",
            "nodes" : [
                0,
                1,
                2,
                3,
                4
            ]
        }
    ],
    "textures" : [
        {
            "source" : 0
        },
        {
            "source" : 1
        },
        {
            "source" : 2
        },
        {
            "source" : 3
        }
    ]
}
